<?xml version="1.0" standalone="no"?>
<!DOCTYPE svg PUBLIC "-//W3C//DTD SVG 20010904//EN"
 "http://www.w3.org/TR/2001/REC-SVG-20010904/DTD/svg10.dtd">
<svg version="1.0" xmlns="http://www.w3.org/2000/svg"
 width="600.000000pt" height="399.000000pt" viewBox="0 0 600.000000 399.000000"
 preserveAspectRatio="xMidYMid meet">

<g transform="translate(0.000000,399.000000) scale(0.100000,-0.100000)"
fill="#000000" stroke="none">
<path d="M2794 3979 c-568 -22 -1110 -128 -1500 -295 -298 -127 -507 -289
-590 -458 l-39 -80 -3 -764 c-3 -865 -7 -817 77 -943 71 -108 158 -185 317
-281 294 -176 789 -323 1299 -383 77 -9 187 -26 245 -36 176 -33 386 -45 557
-31 81 6 186 18 233 26 47 8 146 22 220 31 74 9 163 21 198 27 l62 10 0 682 0
682 133 23 c682 117 1230 386 1372 674 244 494 -500 962 -1738 1092 -117 13
-610 38 -642 33 -5 0 -96 -4 -201 -9z m1426 -363 c0 -9 -142 -332 -150 -340
-5 -4 -43 3 -87 18 -43 14 -84 26 -92 26 -7 0 -127 -54 -266 -120 l-253 -119
-167 56 c-92 30 -163 59 -158 63 4 4 116 58 248 120 132 63 241 115 243 116 2
1 -35 15 -82 30 -47 15 -84 30 -81 32 5 6 771 119 813 121 17 0 32 -1 32 -3z
m-2065 -117 l310 -101 73 36 74 37 106 -113 c233 -247 218 -228 191 -228 -62
1 -861 59 -865 63 -3 3 26 19 63 37 l68 32 -240 79 c-132 43 -271 89 -310 101
l-70 21 140 68 c77 38 142 68 145 69 3 0 144 -45 315 -101z m808 -479 c87 -29
155 -56 150 -60 -4 -4 -118 -59 -251 -123 l-244 -115 86 -28 c47 -15 83 -30
81 -32 -8 -8 -845 -128 -845 -121 0 12 139 332 148 341 4 4 44 -3 87 -17 44
-14 87 -25 95 -25 8 0 128 54 265 120 138 65 255 118 260 116 6 -2 81 -27 168
-56z m1120 -40 c20 0 37 -3 37 -7 0 -5 -30 -22 -68 -39 l-67 -31 303 -98 c166
-55 302 -102 302 -105 0 -4 -61 -36 -136 -72 l-136 -65 -301 99 c-166 54 -309
98 -319 98 -10 0 -47 -15 -84 -32 l-66 -33 -153 160 c-85 88 -154 165 -155
170 0 7 139 1 403 -17 221 -15 419 -27 440 -28z"/>
</g>
</svg>
